{
  "accessors": [
    {
      "bufferView": 1,
      "componentType": 5126,
      "count": 738,
      "max": [
        2.8183600902557373,
        0.5065600275993347,
        0.0
      ],
      "min": [
        0.045409999787807465,
        -0.12613999843597412,
        0.0
      ],
      "type": "VEC3"
    },
    {
      "bufferView": 1,
      "byteOffset": 8856,
      "componentType": 5126,
      "count": 738,
      "max": [
        -0.0,
        0.0,
        1.0
      ],
      "min": [
        -0.0,
        0.0,
        1.0
      ],
      "type": "VEC3"
    },
    {
      "bufferView": 0,
      "componentType": 5125,
      "count": 2172,
      "type": "SCALAR"
    },
    {
      "bufferView": 1,
      "byteOffset": 17712,
      "componentType": 5126,
      "count": 4,
      "max": [
        1.0,
        1.0,
        0.0
      ],
      "min": [
        -1.0,
        -1.0,
        0.0
      ],
      "type": "VEC3"
    },
    {
      "bufferView": 1,
      "byteOffset": 17760,
      "componentType": 5126,
      "count": 4,
      "max": [
        0.0,
        0.0,
        1.0
      ],
      "min": [
        0.0,
        0.0,
        1.0
      ],
      "type": "VEC3"
    },
    {
      "bufferView": 0,
      "byteOffset": 8688,
      "componentType": 5125,
      "count": 6,
      "type": "SCALAR"
    },
    {
      "bufferView": 1,
      "byteOffset": 17808,
      "componentType": 5126,
      "count": 4,
      "max": [
        1.0,
        1.0,
        0.0
      ],
      "min": [
        -1.0,
        -1.0,
        0.0
      ],
      "type": "VEC3"
    },
    {
      "bufferView": 1,
      "byteOffset": 17856,
      "componentType": 5126,
      "count": 4,
      "max": [
        0.0,
        0.0,
        1.0
      ],
      "min": [
        0.0,
        0.0,
        1.0
      ],
      "type": "VEC3"
    },
    {
      "bufferView": 0,
      "byteOffset": 8712,
      "componentType": 5125,
      "count": 6,
      "type": "SCALAR"
    },
    {
      "bufferView": 1,
      "byteOffset": 17904,
      "componentType": 5126,
      "count": 4,
      "max": [
        1.0,
        1.0,
        0.0
      ],
      "min": [
        -1.0,
        -1.0,
        0.0
      ],
      "type": "VEC3"
    },
    {
      "bufferView": 1,
      "byteOffset": 17952,
      "componentType": 5126,
      "count": 4,
      "max": [
        0.0,
        0.0,
        1.0
      ],
      "min": [
        0.0,
        0.0,
        1.0
      ],
      "type": "VEC3"
    },
    {
      "bufferView": 0,
      "byteOffset": 8736,
      "componentType": 5125,
      "count": 6,
      "type": "SCALAR"
    },
    {
      "bufferView": 1,
      "byteOffset": 18000,
      "componentType": 5126,
      "count": 4,
      "max": [
        1.0,
        1.0,
        0.0
      ],
      "min": [
        -1.0,
        -1.0,
        0.0
      ],
      "type": "VEC3"
    },
    {
      "bufferView": 1,
      "byteOffset": 18048,
      "componentType": 5126,
      "count": 4,
      "max": [
        0.0,
        0.0,
        1.0
      ],
      "min": [
        0.0,
        0.0,
        1.0
      ],
      "type": "VEC3"
    },
    {
      "bufferView": 0,
      "byteOffset": 8760,
      "componentType": 5125,
      "count": 6,
      "type": "SCALAR"
    },
    {
      "bufferView": 2,
      "componentType": 5126,
      "count": 41,
      "max": [
        2.208329916000366
      ],
      "min": [
        0.041669998317956924
      ],
      "type": "SCALAR"
    },
    {
      "bufferView": 3,
      "componentType": 5126,
      "count": 41,
      "max": [
        2.0999999046325684,
        0.0015300000086426735,
        0.0
      ],
      "min": [
        0.0,
        -0.19846999645233154,
        0.0
      ],
      "type": "VEC3"
    },
    {
      "bufferView": 2,
      "byteOffset": 164,
      "componentType": 5126,
      "count": 41,
      "max": [
        2.208329916000366
      ],
      "min": [
        0.041669998317956924
      ],
      "type": "SCALAR"
    },
    {
      "bufferView": 4,
      "componentType": 5126,
      "count": 41,
      "max": [
        0.0,
        0.0,
        1.0,
        1.0
      ],
      "min": [
        0.0,
        0.0,
        -0.9998499751091003,
        -0.0043299999088048935
      ],
      "type": "VEC4"
    },
    {
      "bufferView": 2,
      "byteOffset": 328,
      "componentType": 5126,
      "count": 2,
      "max": [
        2.208329916000366
      ],
      "min": [
        0.041669998317956924
      ],
      "type": "SCALAR"
    },
    {
      "bufferView": 3,
      "byteOffset": 492,
      "componentType": 5126,
      "count": 2,
      "max": [
        1.906599998474121,
        0.023819999769330025,
        1.0
      ],
      "min": [
        1.906599998474121,
        0.023819999769330025,
        1.0
      ],
      "type": "VEC3"
    },
    {
      "bufferView": 2,
      "byteOffset": 336,
      "componentType": 5126,
      "count": 41,
      "max": [
        2.208329916000366
      ],
      "min": [
        0.041669998317956924
      ],
      "type": "SCALAR"
    },
    {
      "bufferView": 3,
      "byteOffset": 516,
      "componentType": 5126,
      "count": 41,
      "max": [
        0.0,
        0.02266000024974346,
        0.0
      ],
      "min": [
        -2.0999999046325684,
        -0.27733999490737915,
        0.0
      ],
      "type": "VEC3"
    },
    {
      "bufferView": 2,
      "byteOffset": 500,
      "componentType": 5126,
      "count": 41,
      "max": [
        2.208329916000366
      ],
      "min": [
        0.041669998317956924
      ],
      "type": "SCALAR"
    },
    {
      "bufferView": 4,
      "byteOffset": 656,
      "componentType": 5126,
      "count": 41,
      "max": [
        0.0,
        0.0,
        1.0,
        1.0
      ],
      "min": [
        0.0,
        0.0,
        -0.9998499751091003,
        -0.0043299999088048935
      ],
      "type": "VEC4"
    },
    {
      "bufferView": 2,
      "byteOffset": 664,
      "componentType": 5126,
      "count": 2,
      "max": [
        2.208329916000366
      ],
      "min": [
        0.041669998317956924
      ],
      "type": "SCALAR"
    },
    {
      "bufferView": 3,
      "byteOffset": 1008,
      "componentType": 5126,
      "count": 2,
      "max": [
        1.906599998474121,
        0.023819999769330025,
        1.0
      ],
      "min": [
        1.906599998474121,
        0.023819999769330025,
        1.0
      ],
      "type": "VEC3"
    },
    {
      "bufferView": 2,
      "byteOffset": 672,
      "componentType": 5126,
      "count": 41,
      "max": [
        2.208329916000366
      ],
      "min": [
        0.041669998317956924
      ],
      "type": "SCALAR"
    },
    {
      "bufferView": 3,
      "byteOffset": 1032,
      "componentType": 5126,
      "count": 41,
      "max": [
        0.0,
        1.7509599924087524,
        0.0
      ],
      "min": [
        0.0,
        -0.3490400016307831,
        0.0
      ],
      "type": "VEC3"
    },
    {
      "bufferView": 2,
      "byteOffset": 836,
      "componentType": 5126,
      "count": 2,
      "max": [
        2.208329916000366
      ],
      "min": [
        0.041669998317956924
      ],
      "type": "SCALAR"
    },
    {
      "bufferView": 4,
      "byteOffset": 1312,
      "componentType": 5126,
      "count": 2,
      "max": [
        0.0,
        0.0,
        0.0,
        1.0
      ],
      "min": [
        0.0,
        0.0,
        0.0,
        1.0
      ],
      "type": "VEC4"
    },
    {
      "bufferView": 2,
      "byteOffset": 844,
      "componentType": 5126,
      "count": 2,
      "max": [
        2.208329916000366
      ],
      "min": [
        0.041669998317956924
      ],
      "type": "SCALAR"
    },
    {
      "bufferView": 3,
      "byteOffset": 1524,
      "componentType": 5126,
      "count": 2,
      "max": [
        1.906599998474121,
        0.023819999769330025,
        1.0
      ],
      "min": [
        1.906599998474121,
        0.023819999769330025,
        1.0
      ],
      "type": "VEC3"
    },
    {
      "bufferView": 2,
      "byteOffset": 852,
      "componentType": 5126,
      "count": 41,
      "max": [
        2.208329916000366
      ],
      "min": [
        0.041669998317956924
      ],
      "type": "SCALAR"
    },
    {
      "bufferView": 3,
      "byteOffset": 1548,
      "componentType": 5126,
      "count": 41,
      "max": [
        0.0,
        -0.41356998682022095,
        0.0
      ],
      "min": [
        0.0,
        -1.71356999874115,
        0.0
      ],
      "type": "VEC3"
    },
    {
      "bufferView": 2,
      "byteOffset": 1016,
      "componentType": 5126,
      "count": 2,
      "max": [
        2.208329916000366
      ],
      "min": [
        0.041669998317956924
      ],
      "type": "SCALAR"
    },
    {
      "bufferView": 4,
      "byteOffset": 1344,
      "componentType": 5126,
      "count": 2,
      "max": [
        0.0,
        0.0,
        0.0,
        1.0
      ],
      "min": [
        0.0,
        0.0,
        0.0,
        1.0
      ],
      "type": "VEC4"
    },
    {
      "bufferView": 2,
      "byteOffset": 1024,
      "componentType": 5126,
      "count": 2,
      "max": [
        2.208329916000366
      ],
      "min": [
        0.041669998317956924
      ],
      "type": "SCALAR"
    },
    {
      "bufferView": 3,
      "byteOffset": 2040,
      "componentType": 5126,
      "count": 2,
      "max": [
        1.906599998474121,
        0.023819999769330025,
        1.0
      ],
      "min": [
        1.906599998474121,
        0.023819999769330025,
        1.0
      ],
      "type": "VEC3"
    }
  ],
  "animations": [
    {
      "channels": [
        {
          "sampler": 0,
          "target": {
            "node": 10,
            "path": "translation"
          }
        },
        {
          "sampler": 1,
          "target": {
            "node": 10,
            "path": "rotation"
          }
        },
        {
          "sampler": 2,
          "target": {
            "node": 10,
            "path": "scale"
          }
        },
        {
          "sampler": 3,
          "target": {
            "node": 8,
            "path": "translation"
          }
        },
        {
          "sampler": 4,
          "target": {
            "node": 8,
            "path": "rotation"
          }
        },
        {
          "sampler": 5,
          "target": {
            "node": 8,
            "path": "scale"
          }
        },
        {
          "sampler": 6,
          "target": {
            "node": 6,
            "path": "translation"
          }
        },
        {
          "sampler": 7,
          "target": {
            "node": 6,
            "path": "rotation"
          }
        },
        {
          "sampler": 8,
          "target": {
            "node": 6,
            "path": "scale"
          }
        },
        {
          "sampler": 9,
          "target": {
            "node": 4,
            "path": "translation"
          }
        },
        {
          "sampler": 10,
          "target": {
            "node": 4,
            "path": "rotation"
          }
        },
        {
          "sampler": 11,
          "target": {
            "node": 4,
            "path": "scale"
          }
        }
      ],
      "name": "Take 01",
      "samplers": [
        {
          "input": 15,
          "interpolation": "LINEAR",
          "output": 16
        },
        {
          "input": 17,
          "interpolation": "LINEAR",
          "output": 18
        },
        {
          "input": 19,
          "interpolation": "LINEAR",
          "output": 20
        },
        {
          "input": 21,
          "interpolation": "LINEAR",
          "output": 22
        },
        {
          "input": 23,
          "interpolation": "LINEAR",
          "output": 24
        },
        {
          "input": 25,
          "interpolation": "LINEAR",
          "output": 26
        },
        {
          "input": 27,
          "interpolation": "LINEAR",
          "output": 28
        },
        {
          "input": 29,
          "interpolation": "LINEAR",
          "output": 30
        },
        {
          "input": 31,
          "interpolation": "LINEAR",
          "output": 32
        },
        {
          "input": 33,
          "interpolation": "LINEAR",
          "output": 34
        },
        {
          "input": 35,
          "interpolation": "LINEAR",
          "output": 36
        },
        {
          "input": 37,
          "interpolation": "LINEAR",
          "output": 38
        }
      ]
    }
  ],
  "asset": {
    "extras": {
      "author": "yelaman.arts (https://sketchfab.com/elamanbolushan)",
      "license": "CC-BY-4.0 (http://creativecommons.org/licenses/by/4.0/)",
      "source": "https://sketchfab.com/3d-models/loading-animate-5d02b9b25e7f4e5bb11075a7d373048e",
      "title": "Loading animate"
    },
    "generator": "Sketchfab-12.65.0",
    "version": "2.0"
  },
  "bufferViews": [
    {
      "buffer": 0,
      "byteLength": 8784,
      "name": "floatBufferViews",
      "target": 34963
    },
    {
      "buffer": 0,
      "byteLength": 18096,
      "byteOffset": 8784,
      "byteStride": 12,
      "name": "floatBufferViews",
      "target": 34962
    },
    {
      "buffer": 0,
      "byteLength": 1032,
      "byteOffset": 26880,
      "name": "floatBufferViews"
    },
    {
      "buffer": 0,
      "byteLength": 2064,
      "byteOffset": 27912,
      "byteStride": 12,
      "name": "floatBufferViews"
    },
    {
      "buffer": 0,
      "byteLength": 1376,
      "byteOffset": 29976,
      "byteStride": 16,
      "name": "floatBufferViews"
    }
  ],
  "buffers": [
    {
      "byteLength": 31352,
      "uri": "scene.bin"
    }
  ],
  "extensionsRequired": [
    "KHR_materials_pbrSpecularGlossiness"
  ],
  "extensionsUsed": [
    "KHR_materials_pbrSpecularGlossiness"
  ],
  "materials": [
    {
      "doubleSided": true,
      "emissiveFactor": [
        0.0,
        1.0,
        1.0
      ],
      "extensions": {
        "KHR_materials_pbrSpecularGlossiness": {
          "diffuseFactor": [
            1.0,
            1.0,
            1.0,
            1.0
          ],
          "glossinessFactor": 0.4,
          "specularFactor": [
            1.0,
            1.0,
            1.0
          ]
        }
      },
      "name": "Material.001"
    }
  ],
  "meshes": [
    {
      "name": "Text_0",
      "primitives": [
        {
          "attributes": {
            "NORMAL": 1,
            "POSITION": 0
          },
          "indices": 2,
          "material": 0,
          "mode": 4
        }
      ]
    },
    {
      "name": "Plane_0",
      "primitives": [
        {
          "attributes": {
            "NORMAL": 4,
            "POSITION": 3
          },
          "indices": 5,
          "material": 0,
          "mode": 4
        }
      ]
    },
    {
      "name": "Plane.001_0",
      "primitives": [
        {
          "attributes": {
            "NORMAL": 7,
            "POSITION": 6
          },
          "indices": 8,
          "material": 0,
          "mode": 4
        }
      ]
    },
    {
      "name": "Plane.002_0",
      "primitives": [
        {
          "attributes": {
            "NORMAL": 10,
            "POSITION": 9
          },
          "indices": 11,
          "material": 0,
          "mode": 4
        }
      ]
    },
    {
      "name": "Plane.003_0",
      "primitives": [
        {
          "attributes": {
            "NORMAL": 13,
            "POSITION": 12
          },
          "indices": 14,
          "material": 0,
          "mode": 4
        }
      ]
    }
  ],
  "nodes": [
    {
      "children": [
        1
      ],
      "matrix": [
        1.0,
        0.0,
        0.0,
        0.0,
        0.0,
        0.9999945759773254,
        -0.003299588104709761,
        0.0,
        0.0,
        0.003299588104709761,
        0.9999945759773254,
        0.0,
        0.0,
        -0.012402705848217007,
        -0.012361848726868633,
        1.0
      ],
      "name": "Sketchfab_model"
    },
    {
      "children": [
        2,
        4,
        6,
        8,
        10
      ],
      "name": "Root"
    },
    {
      "children": [
        3
      ],
      "matrix": [
        1.0,
        0.0,
        0.0,
        0.0,
        0.0,
        1.0,
        0.0,
        0.0,
        0.0,
        0.0,
        1.0,
        0.0,
        -1.4145199999999998,
        0.0,
        0.0,
        1.0
      ],
      "name": "Text"
    },
    {
      "mesh": 0,
      "name": "Text_0"
    },
    {
      "children": [
        5
      ],
      "name": "Plane",
      "scale": [
        1.906599998474121,
        0.023819999769330025,
        1.0
      ],
      "translation": [
        0.0,
        -0.41356998682022095,
        0.0
      ]
    },
    {
      "mesh": 1,
      "name": "Plane_0"
    },
    {
      "children": [
        7
      ],
      "name": "Plane.001",
      "scale": [
        1.906599998474121,
        0.023819999769330025,
        1.0
      ],
      "translation": [
        0.0,
        -0.3490400016307831,
        0.0
      ]
    },
    {
      "mesh": 2,
      "name": "Plane.001_0"
    },
    {
      "children": [
        9
      ],
      "name": "Plane.002",
      "scale": [
        1.906599998474121,
        0.023819999769330025,
        1.0
      ],
      "translation": [
        0.0,
        -0.27733999490737915,
        0.0
      ]
    },
    {
      "mesh": 3,
      "name": "Plane.002_0"
    },
    {
      "children": [
        11
      ],
      "name": "Plane.003",
      "scale": [
        1.906599998474121,
        0.023819999769330025,
        1.0
      ],
      "translation": [
        0.0,
        -0.19846999645233154,
        0.0
      ]
    },
    {
      "mesh": 4,
      "name": "Plane.003_0"
    }
  ],
  "scene": 0,
  "scenes": [
    {
      "name": "Sketchfab_Scene",
      "nodes": [
        0
      ]
    }
  ]
}
